<svg width="247" height="230" viewBox="0 0 247 230" fill="none" xmlns="http://www.w3.org/2000/svg">
<path d="M123.398 196.678C176.253 196.678 219.1 194.346 219.1 191.47C219.1 188.595 176.253 186.263 123.398 186.263C70.5427 186.263 27.6953 188.595 27.6953 191.47C27.6953 194.346 70.5427 196.678 123.398 196.678Z" fill="#F5F5F5"/>
<path d="M95.456 55.039C91.611 57.9922 87.8547 62.7532 90.0562 67.919C92.2576 73.0848 106.345 73.6046 109.306 71.4794C113.156 68.7194 109.755 56.4282 106.754 56.3546C106.527 51.796 98.6693 52.5688 95.456 55.039Z" fill="#263238"/>
<path d="M90.0708 104.788C90.0708 104.788 91.6157 130.98 93.3186 145.162C93.4914 158.479 96.7738 188.563 96.7738 188.563H100.382C100.989 173.636 105.446 159.698 102.485 146.533C109.395 120.681 104.661 104.806 104.661 104.806L90.0708 104.788Z" fill="#FFB573"/>
<path d="M93.9995 104.806C93.9995 104.806 101.428 133.86 103.462 146.234C105.604 159.234 108.792 184.46 108.644 188.554H111.759C111.759 188.554 116.991 163.033 112.149 146.694C116.142 109.894 106.29 104.834 106.29 104.834L93.9995 104.806Z" fill="#FFB573"/>
<path d="M76.1863 71.2034C75.9543 69.6348 72.8644 69.5014 72.8644 69.5014L71.3837 68.8068C71.1237 68.6585 70.8121 68.6101 70.5146 68.6719C70.2172 68.7337 69.9571 68.9009 69.7894 69.138L69.2958 69.9016C69.152 70.2022 69.1282 70.5407 69.2287 70.8561C69.3291 71.1716 69.5473 71.4432 69.8437 71.622L70.2928 71.9256C71.057 72.4346 71.9611 72.7298 72.899 72.7766L74.2662 72.8456C74.5665 72.8617 74.8674 72.8274 75.1547 72.7444C75.4949 72.6447 75.785 72.4339 75.9718 72.1508C76.1586 71.8677 76.2295 71.5313 76.1715 71.2034H76.1863Z" fill="#FFB573"/>
<path d="M92.4596 80.3804C92.2721 80.5598 92.1734 80.6472 92.0352 80.7622L91.6452 81.0842C91.3885 81.2866 91.122 81.4752 90.8604 81.6638C90.3273 82.0318 89.7844 82.3722 89.2266 82.6942C88.1073 83.322 86.9314 83.8576 85.7122 84.295C83.2841 85.1753 80.7063 85.6427 78.1011 85.675H77.874C77.7551 85.6726 77.6364 85.6634 77.5186 85.6474C77.2868 85.6158 77.0598 85.5586 76.8424 85.4772C76.4764 85.3366 76.1417 85.1338 75.8552 84.8792C75.4843 84.5396 75.1817 84.1407 74.9618 83.7016C74.654 83.0796 74.4238 82.4267 74.2758 81.7558C74.014 80.6011 73.849 79.4291 73.7822 78.2506C73.6485 75.9933 73.698 73.7297 73.9302 71.4794C73.9577 71.2279 74.0835 70.9946 74.2835 70.8238C74.4836 70.6531 74.744 70.5569 75.0153 70.5535C75.2865 70.5501 75.5496 70.6397 75.7546 70.8054C75.9595 70.971 76.092 71.2011 76.1267 71.4518V71.4794C76.3933 73.623 76.6993 75.7988 77.1139 77.8826C77.2967 78.8918 77.5489 79.889 77.8691 80.868C77.9966 81.2684 78.1721 81.6542 78.3923 82.018C78.4812 82.1514 78.57 82.2158 78.5305 82.1698C78.4652 82.1039 78.384 82.0534 78.2936 82.0226C78.2136 81.9887 78.1288 81.9655 78.0419 81.9536H77.9086C78.9697 81.8633 80.0222 81.7003 81.0577 81.466C82.0838 81.2272 83.09 80.9197 84.0686 80.546C85.0431 80.1572 85.9824 79.6957 86.8771 79.166C87.3263 78.9084 87.7607 78.637 88.1802 78.3472C88.3875 78.2046 88.5849 78.0574 88.7824 77.9102L89.0687 77.6894L89.2859 77.51L89.4142 77.4042C89.8446 77.0449 90.4086 76.8565 90.986 76.8791C91.5633 76.9018 92.1084 77.1337 92.5049 77.5254C92.9014 77.9172 93.1181 78.4378 93.1087 78.9762C93.0993 79.5147 92.8647 80.0284 92.4547 80.408L92.4596 80.3804Z" fill="#FFB573"/>
<path d="M94.8883 75.2744C90.984 74.6672 86.8871 77.142 84.7647 79.1568C83.6689 82.2296 87.1784 85.9648 87.1784 85.9648C87.1784 85.9648 92.1784 83.1036 93.98 81.1486C95.7817 79.1936 97.139 75.624 94.8883 75.2744Z" fill="#E0E0E0"/>
<path d="M106.981 104.457C106.981 104.457 112.49 108.1 113.526 120.212C113.941 124.982 114.686 144.012 116.256 152.2C110.604 155.963 93.6839 155.448 91.0333 153.249C91.7836 136.689 84.9918 114.724 89.9178 104.622C98.0719 103.689 106.981 104.457 106.981 104.457Z" fill="#263238"/>
<path opacity="0.2" d="M101.394 139.191C101.468 132.232 100.367 122.654 97.0254 116.978C98.1656 124.062 101.394 139.191 101.394 139.191Z" fill="black"/>
<path d="M87.3314 80.8864C87.3314 84.8286 83.9602 86.8986 87.7757 89.9346C88.0027 93.3386 88.2693 99.4336 89.3897 104.986C90.5496 106.49 99.0295 106.366 107.84 104.586C106.69 99.8246 107.115 92.069 110.13 81.4614C110.291 80.8727 110.32 80.2595 110.214 79.66C110.109 79.0606 109.871 78.488 109.517 77.978C109.163 77.468 108.7 77.0316 108.157 76.6962C107.613 76.3608 107.001 76.1336 106.359 76.0288C105.634 75.9092 104.879 75.7988 104.079 75.7068C101.323 75.3282 98.5423 75.1345 95.757 75.1272C94.8587 75.1272 93.9258 75.1824 93.0373 75.2376C91.4938 75.3265 90.0447 75.9601 88.9847 77.0095C87.9247 78.0589 87.3335 79.4452 87.3314 80.8864Z" fill="#E0E0E0"/>
<path d="M105.331 87.731L94.9903 89.9134C94.5968 89.9964 94.3501 90.361 94.4392 90.7277L97.7871 104.505C97.8762 104.872 98.2675 105.102 98.661 105.019L109.001 102.837C109.395 102.754 109.642 102.389 109.553 102.022L106.205 88.2446C106.116 87.8779 105.724 87.648 105.331 87.731Z" fill="#FF4040"/>
<path d="M96.7787 80.2102C96.7787 80.2102 95.1054 82.0778 93.7234 82.5102L93.5654 83.4302C95.313 83.2222 96.9261 82.4469 98.1213 81.2406L96.7787 80.2102Z" fill="#FF4040"/>
<path d="M92.2327 79.0832C92.2327 79.0832 92.1636 81.512 92.8843 82.6988L92.3462 83.49C91.1827 82.2559 90.5222 80.6796 90.4805 79.0372L92.2327 79.0832Z" fill="#FF4040"/>
<path d="M103.738 66.9576C103.077 69.4048 102.302 73.9174 104.079 75.6976C104.079 75.6976 97.4598 77.3812 93.1458 82.9012C91.1715 77.1006 95.7767 75.118 95.7767 75.118C98.7925 74.658 98.832 72.6064 98.4174 70.6376L103.738 66.9576Z" fill="#FFB573"/>
<path opacity="0.2" d="M101.571 68.4618L98.4224 70.6468C98.5242 71.1012 98.5836 71.5629 98.6001 72.0268C99.7452 71.9532 101.374 70.8998 101.562 69.8004C101.648 69.3581 101.651 68.9052 101.571 68.4618Z" fill="black"/>
<path d="M106.809 62.5968C105.54 66.562 105.096 68.2686 102.425 69.828C98.4077 72.1694 93.5408 69.759 93.5112 65.4994C93.5112 61.663 95.5695 55.8394 100.145 55.2046C104.721 54.5698 108.097 58.627 106.809 62.5968Z" fill="#FFB573"/>
<path d="M103.491 56.8054C102.292 60.628 103.319 64.6254 105.767 65.0854C109.168 63.9032 109 60.3842 108.131 58.7742C107.262 57.1642 104.182 54.602 103.491 56.8054Z" fill="#263238"/>
<path d="M105.352 63.6732C103.461 64.2574 103.096 65.4396 103.096 65.4396C103.096 65.4396 104.394 64.584 105.638 64.745C105.458 64.4123 105.36 64.0459 105.352 63.6732Z" fill="#263238"/>
<path d="M100.629 62.2242C100.545 62.5508 100.293 62.7716 100.061 62.721C99.829 62.6704 99.7056 62.353 99.7895 62.0264C99.8735 61.6998 100.125 61.4744 100.357 61.5296C100.589 61.5848 100.693 61.8976 100.629 62.2242Z" fill="#263238"/>
<path d="M96.2503 61.2536C96.1663 61.5802 95.9146 61.801 95.6826 61.7458C95.4506 61.6906 95.3272 61.3824 95.4111 61.0512C95.495 60.72 95.7468 60.5038 95.9788 60.559C96.2108 60.6142 96.3391 60.9224 96.2503 61.2536Z" fill="#263238"/>
<path d="M96.0876 60.6004L95.293 60.1726C95.293 60.1726 95.5743 60.8902 96.0876 60.6004Z" fill="#263238"/>
<path d="M97.0798 61.7872C96.578 62.4608 95.9764 63.0648 95.293 63.5812C95.443 63.7433 95.6286 63.8735 95.8372 63.9632C96.0458 64.0528 96.2726 64.0998 96.5023 64.101L97.0798 61.7872Z" fill="#ED893E"/>
<path d="M106.833 66.5758C106.572 66.8618 106.247 67.092 105.882 67.2507C105.516 67.4095 105.119 67.493 104.716 67.4958C103.684 67.4682 103.506 66.3642 104.074 65.458C104.567 64.6392 105.732 63.6686 106.631 64.1332C107.529 64.5978 107.534 65.8306 106.833 66.5758Z" fill="#FFB573"/>
<path d="M101.453 60.8166C101.4 60.7921 101.359 60.7491 101.339 60.697C101.26 60.4565 101.123 60.236 100.938 60.0526C100.753 59.8692 100.526 59.7277 100.273 59.639C100.219 59.625 100.172 59.5916 100.143 59.5461C100.115 59.5005 100.107 59.4464 100.12 59.3952C100.126 59.3699 100.138 59.3462 100.155 59.3253C100.171 59.3045 100.192 59.2871 100.216 59.2741C100.24 59.2612 100.267 59.253 100.295 59.2501C100.322 59.2472 100.35 59.2496 100.377 59.2572C100.7 59.362 100.992 59.5361 101.229 59.7654C101.467 59.9947 101.643 60.2729 101.744 60.5774C101.754 60.6018 101.758 60.6278 101.757 60.6539C101.756 60.68 101.748 60.7055 101.736 60.7289C101.723 60.7522 101.706 60.7729 101.684 60.7896C101.663 60.8063 101.638 60.8186 101.611 60.8258C101.559 60.8413 101.502 60.8381 101.453 60.8166Z" fill="#263238"/>
<path d="M94.6614 59.294C94.6054 59.2957 94.5507 59.2776 94.5084 59.2434C94.4695 59.2057 94.4478 59.1554 94.4478 59.1031C94.4478 59.0508 94.4695 59.0005 94.5084 58.9628C94.7285 58.7256 95.0067 58.5416 95.3196 58.4262C95.6324 58.3109 95.9705 58.2677 96.3051 58.3004C96.3614 58.3094 96.4119 58.3384 96.4459 58.3812C96.4799 58.4241 96.4949 58.4775 96.4877 58.5304C96.4792 58.5822 96.4489 58.6288 96.4036 58.6599C96.3582 58.6909 96.3015 58.7039 96.2458 58.696C95.981 58.6714 95.7137 58.7071 95.467 58.8001C95.2202 58.893 95.0014 59.0404 94.8292 59.2296C94.8079 59.251 94.7819 59.2678 94.7529 59.2789C94.7239 59.29 94.6927 59.2952 94.6614 59.294Z" fill="#263238"/>
<path d="M100.456 61.5756L99.6616 61.1432C99.6616 61.1432 99.943 61.8653 100.456 61.5756Z" fill="#263238"/>
<path d="M100.199 94.2356L96.2505 93.5226L96.6947 97.75C96.6947 97.75 99.6563 97.6304 101.344 96.37L101.502 95.818C101.32 94.9026 101.098 94.5668 100.199 94.2356Z" fill="#FFB573"/>
<path d="M93.8764 95.3258L94.3354 97.1152C94.4025 97.3722 94.5705 97.5964 94.8062 97.7437C95.0419 97.891 95.3283 97.9507 95.6089 97.911L96.7145 97.75L96.2703 93.5226L94.5871 94.093C94.3273 94.1817 94.1113 94.3563 93.9803 94.5835C93.8493 94.8107 93.8123 95.0748 93.8764 95.3258Z" fill="#FFB573"/>
<path d="M109.03 79.12C110.229 81.2614 111.276 83.4742 112.164 85.744C112.608 86.8802 113.028 88.044 113.363 89.2354C113.729 90.4698 113.977 91.7321 114.104 93.0074C114.133 93.3432 114.148 93.6882 114.153 94.0378V94.162V94.3598C114.141 94.4953 114.115 94.6294 114.074 94.76C114.002 95.0136 113.888 95.2555 113.739 95.4776C113.51 95.8082 113.211 96.0916 112.86 96.3102C112.431 96.5763 111.957 96.7737 111.458 96.8944C111.08 96.9917 110.696 97.067 110.308 97.1198C108.963 97.2775 107.605 97.3252 106.251 97.2624C103.683 97.152 101.128 96.866 98.605 96.4068C98.3317 96.3646 98.0856 96.228 97.9156 96.0242C97.7457 95.8203 97.6644 95.5643 97.6881 95.3071C97.7118 95.0499 97.8386 94.8105 98.0433 94.6366C98.2481 94.4627 98.5156 94.3672 98.7926 94.369C101.261 94.3276 103.758 94.2678 106.162 94.0976C107.313 94.0233 108.456 93.8695 109.582 93.6376C109.812 93.588 110.038 93.5235 110.259 93.4444C110.368 93.4162 110.469 93.366 110.555 93.2972C110.46 93.3494 110.382 93.424 110.328 93.5134C110.262 93.6103 110.212 93.7157 110.18 93.8262C110.162 93.8882 110.149 93.9512 110.14 94.0148C110.138 94.0454 110.138 94.0762 110.14 94.1068C110.14 93.8722 110.096 93.6468 110.056 93.3892C109.625 91.2572 108.951 89.174 108.047 87.1746C107.154 85.1 106.132 82.9886 105.086 80.9968V80.96C104.874 80.4786 104.864 79.9405 105.058 79.4526C105.253 78.9648 105.637 78.5632 106.135 78.3277C106.633 78.0922 107.208 78.0401 107.745 78.1818C108.283 78.3235 108.743 78.6486 109.035 79.0924L109.03 79.12Z" fill="#FFB573"/>
<path d="M106.616 76.1714C109.444 76.659 110.703 79.028 112.756 83.7568C112.129 86.94 107.109 88.6144 107.109 88.6144C107.109 88.6144 104.227 83.8534 103.654 81.328C103.082 78.8026 103.763 75.6792 106.616 76.1714Z" fill="#E0E0E0"/>
<path d="M100.639 188.6C100.615 188.539 100.571 188.487 100.511 188.452C100.452 188.418 100.382 188.404 100.313 188.411L96.9662 188.365C96.6238 188.344 96.2818 188.413 95.979 188.563C94.447 189.455 92.7262 190.028 90.9345 190.242C90.2238 190.343 90.5446 191.461 92.2228 191.48C94.9919 191.507 95.4953 191.314 97.8596 191.337C99.8784 191.36 98.9159 191.443 100.52 191.48C100.905 191.48 101.221 191.254 101.172 191.02L100.639 188.6Z" fill="#263238"/>
<path d="M112.184 188.6C112.16 188.539 112.115 188.488 112.056 188.453C111.997 188.419 111.927 188.404 111.858 188.411L109.128 188.365C108.786 188.343 108.443 188.411 108.141 188.563C107.154 189.203 107.292 189.943 105.041 190.242C104.331 190.343 104.681 191.461 106.359 191.48C109.128 191.507 108.961 191.337 110.086 191.337C111.211 191.337 110.52 191.443 112.129 191.48C112.514 191.48 112.825 191.254 112.766 191.02L112.184 188.6Z" fill="#263238"/>
<path d="M94.9575 80.9186C96.3593 80.9738 98.9309 82.0456 99.7552 83.191C100.92 82.064 105.471 79.4466 105.55 75.9C104.993 75.4008 104.291 75.0649 103.531 74.934C103.531 74.934 97.46 77.671 94.9575 80.9186Z" fill="#FAFAFA"/>
<path d="M92.6869 80.7346C92.6869 80.7346 92.3068 77.8688 96.0285 75.0858C95.6533 74.8006 94.1824 75.1226 94.1824 75.1226C94.1824 75.1226 89.8339 76.866 89.9623 81.3786C90.7459 80.8416 91.7233 80.6106 92.6869 80.7346Z" fill="#FAFAFA"/>
<path d="M92.1338 81.949C91.5958 82.1836 91.3835 83.8166 92.1338 84.1984C92.884 84.5802 92.81 83.0208 93.2444 82.4872C93.6787 81.9536 93.0765 81.5396 92.1338 81.949Z" fill="#FF4040"/>
<path d="M92.7953 82.5838C92.4103 83.0438 92.9088 84.6078 93.7381 84.6032C94.5673 84.5986 93.8516 83.2232 94.0145 82.5424C94.1774 81.8616 93.4518 81.7742 92.7953 82.5838Z" fill="#FF4040"/>
<path d="M92.9088 83.7476C91.9858 82.4182 91.9216 89.424 94.1576 92.184C94.0095 89.4654 95.5742 85.6106 92.9088 83.7476Z" fill="#FF4040"/>
<path d="M92.8251 83.6878C92.4154 82.3354 90.3571 88.2602 91.4973 91.1536C92.1439 88.8122 94.5576 85.9234 92.8251 83.6878Z" fill="#FF4040"/>
<path d="M99.7059 65.366C99.921 65.2787 100.127 65.174 100.323 65.0532C100.334 65.0429 100.343 65.0307 100.349 65.0173C100.355 65.0039 100.358 64.9895 100.358 64.975C100.358 64.9604 100.355 64.946 100.349 64.9326C100.343 64.9192 100.334 64.907 100.323 64.8968C100.302 64.8723 100.273 64.8559 100.24 64.8508C100.207 64.8456 100.173 64.8522 100.145 64.8692C99.705 65.1442 99.2043 65.3238 98.6798 65.3947C98.1553 65.4655 97.6204 65.4259 97.1146 65.2786C97.0997 65.2725 97.0836 65.2692 97.0673 65.2689C97.0511 65.2686 97.0349 65.2713 97.0198 65.2769C97.0046 65.2824 96.9908 65.2907 96.9791 65.3013C96.9675 65.3118 96.9581 65.3244 96.9517 65.3384C96.9406 65.367 96.9421 65.3986 96.956 65.4262C96.9699 65.4538 96.995 65.4752 97.0257 65.4856C97.9044 65.755 98.8589 65.7124 99.7059 65.366Z" fill="#263238"/>
<path d="M85.3816 68.609H60.1641V69.3726H85.3816V68.609Z" fill="#FF4040"/>
<path d="M84.7793 69.3726H60.7661L61.8224 69.9062H83.723L84.7793 69.3726Z" fill="#FF4040"/>
<path opacity="0.2" d="M84.7793 69.3726H60.7661L61.8224 69.9062H83.723L84.7793 69.3726Z" fill="black"/>
<path d="M68.2443 48.1528C68.0967 48.1516 67.9556 48.0965 67.8513 47.9992C67.747 47.902 67.6878 47.7705 67.6865 47.633V45.8896C67.6878 45.7521 67.747 45.6206 67.8513 45.5234C67.9556 45.4262 68.0967 45.371 68.2443 45.3698C68.3918 45.371 68.5329 45.4262 68.6372 45.5234C68.7416 45.6206 68.8007 45.7521 68.802 45.8896V47.633C68.8007 47.7705 68.7416 47.902 68.6372 47.9992C68.5329 48.0965 68.3918 48.1516 68.2443 48.1528Z" fill="#263238"/>
<path d="M69.1426 45.7838V45.5538C69.1426 45.3302 68.9481 45.149 68.7082 45.149H67.7803C67.5404 45.149 67.3459 45.3302 67.3459 45.5538V45.7838C67.3459 46.0073 67.5404 46.1886 67.7803 46.1886H68.7082C68.9481 46.1886 69.1426 46.0073 69.1426 45.7838Z" fill="#263238"/>
<path d="M69.1374 51.9386V46.966C69.1374 46.9119 69.1147 46.8599 69.0741 46.8212C69.0335 46.7825 68.9782 46.7602 68.9202 46.759H67.5678C67.5097 46.7602 67.4545 46.7825 67.4139 46.8212C67.3733 46.8599 67.3506 46.9119 67.3506 46.966V51.9386C67.3507 52.3123 67.2659 52.6818 67.1017 53.0227C66.9375 53.3637 66.6977 53.6683 66.3979 53.9166C66.0993 54.1667 65.8602 54.4723 65.6962 54.8138C65.5321 55.1553 65.4466 55.525 65.4453 55.8992V68.655H71.0377V55.8992C71.0373 55.5249 70.9523 55.1549 70.7881 54.8132C70.624 54.4716 70.3844 54.1661 70.0851 53.9166C69.7867 53.6675 69.5481 53.3626 69.3848 53.0218C69.2215 52.6809 69.1372 52.3118 69.1374 51.9386Z" fill="#FF4040"/>
<path d="M71.0378 57.408H67.3457V65.6558H71.0378V57.408Z" fill="#E0E0E0"/>
<path d="M76.2796 68.609H75.6133C75.8352 68.6229 76.0578 68.6229 76.2796 68.609Z" fill="#FF4040"/>
<path d="M80.3026 68.609H79.6313C79.8549 68.6229 80.0791 68.6229 80.3026 68.609Z" fill="#FF4040"/>
<path opacity="0.2" d="M75.3862 58.88V60.973C75.3862 62.6382 76.403 64.0228 77.6913 64.193V67.873C77.6913 68.4388 77.099 68.5998 76.64 68.6366H79.2708C78.8118 68.5998 78.2194 68.4388 78.2194 67.873V64.193C79.5077 64.0274 80.5245 62.6428 80.5245 60.973V58.88H75.3862Z" fill="#FF4040"/>
<path d="M105.969 56.9112C103.995 57.6932 97.3809 57.9324 94.7896 57.408C97.4698 53.8798 103.492 52.8448 105.969 56.9112Z" fill="#263238"/>
<path d="M112.193 69.5152C112.174 69.5148 112.155 69.5105 112.138 69.5026C112.121 69.4946 112.106 69.4832 112.095 69.4692C112.03 69.3864 110.574 67.39 110.545 62.0448C110.545 59.8138 109.809 58.0198 108.57 57.1136C108.248 56.8657 107.869 56.6916 107.461 56.6054C107.054 56.5191 106.631 56.523 106.226 56.6168C106.21 56.6201 106.193 56.6205 106.177 56.6179C106.161 56.6153 106.146 56.6098 106.132 56.6017C106.119 56.5936 106.107 56.583 106.097 56.5706C106.088 56.5582 106.081 56.5442 106.078 56.5294C106.074 56.5146 106.074 56.4993 106.077 56.4843C106.079 56.4694 106.085 56.4551 106.094 56.4423C106.103 56.4295 106.114 56.4184 106.127 56.4097C106.141 56.4009 106.156 56.3947 106.171 56.3914C106.612 56.2937 107.071 56.2914 107.512 56.3847C107.954 56.478 108.366 56.6644 108.718 56.9296C110.026 57.8818 110.782 59.7448 110.796 62.0402C110.826 67.3026 112.277 69.3174 112.277 69.3358C112.287 69.3482 112.293 69.3621 112.297 69.3769C112.301 69.3917 112.301 69.4071 112.298 69.422C112.296 69.437 112.29 69.4513 112.281 69.4642C112.272 69.477 112.261 69.4881 112.248 69.4968C112.231 69.5064 112.213 69.5127 112.193 69.5152Z" fill="#263238"/>
<path d="M147.712 42.435C149.089 44.1922 149.084 46.9292 148.615 48.415C146.148 47.3708 146.533 44.3716 146.533 44.3716L147.712 42.435Z" fill="#263238"/>
<path d="M155.092 64.1838L156.513 65.642L157.994 67.1232C158.981 68.103 159.968 69.0598 160.985 69.9798C161.479 70.4398 161.972 70.8998 162.501 71.3046C163.029 71.7094 163.488 72.1418 164.006 72.5144C164.524 72.887 164.993 73.2182 165.452 73.5034C165.798 73.7194 166.161 73.9101 166.538 74.0738L165.783 73.9634C165.559 73.9382 165.332 73.9853 165.141 74.0968C165.141 74.0968 165.26 74.0968 165.428 74.0048C165.886 73.7431 166.311 73.4346 166.696 73.0848C167.707 72.1898 168.652 71.2324 169.524 70.219C170.467 69.1656 171.385 68.0432 172.298 66.907C173.211 65.7708 174.125 64.607 175.023 63.4616L175.067 63.411C175.382 63.0241 175.832 62.7523 176.34 62.6429C176.847 62.5336 177.38 62.5935 177.845 62.8124C178.31 63.0312 178.678 63.3951 178.885 63.8407C179.091 64.2863 179.124 64.7854 178.977 65.251C178.477 66.7048 177.899 68.1341 177.244 69.5336C176.597 70.9136 175.882 72.2936 175.072 73.6736C174.232 75.1089 173.261 76.474 172.17 77.7538C171.519 78.5104 170.784 79.2011 169.978 79.8146C169.444 80.2171 168.859 80.557 168.236 80.8266C167.321 81.2241 166.318 81.4163 165.309 81.3878C165.123 81.3813 164.938 81.3582 164.756 81.3188L164.549 81.2774C163.468 81.0359 162.422 80.6729 161.434 80.1964C160.607 79.8038 159.808 79.3628 159.04 78.8762C157.633 77.9934 156.291 77.0237 155.023 75.9736C153.779 74.9662 152.624 73.9128 151.503 72.841C150.95 72.2982 150.398 71.7554 149.87 71.1942C149.341 70.633 148.833 70.0856 148.275 69.4462C147.653 68.6037 147.387 67.5762 147.529 66.5618C147.671 65.5475 148.212 64.6181 149.045 63.953C149.879 63.2878 150.948 62.9339 152.045 62.9596C153.143 62.9852 154.191 63.3885 154.988 64.0918L155.092 64.1838Z" fill="#E0E0E0"/>
<path d="M177.234 65.9456L181.632 66.1434L180.205 60.6234C180.205 60.6234 176.114 60.904 175.457 62.8636C175.388 63.0821 175.402 63.316 175.497 63.526L176.306 65.3338C176.383 65.5073 176.51 65.6569 176.675 65.7653C176.839 65.8736 177.033 65.9361 177.234 65.9456Z" fill="#FF8B7B"/>
<path d="M185.556 62.8682L184.707 61.0282C184.541 60.6716 184.246 60.3808 183.873 60.2074C183.5 60.034 183.073 59.9891 182.668 60.0806L180.2 60.6464L181.627 66.1664L184.588 65.0532C184.808 64.9722 185.009 64.8506 185.177 64.6958C185.346 64.541 185.48 64.3561 185.57 64.1522C185.66 63.9483 185.705 63.7295 185.703 63.5089C185.701 63.2883 185.65 63.0704 185.556 62.8682Z" fill="#FF8B7B"/>
<path d="M144.691 142.388C140.022 123.248 137.134 100.17 137.134 100.17L156.281 99.8844C156.281 99.8844 156.014 130.985 156.054 144.012C156.103 157.559 157.11 187.372 157.11 187.372H151.3C151.3 187.372 143.803 159.132 144.691 142.388Z" fill="#263238"/>
<path d="M143.201 115.98L140.17 120.166C141.073 125.391 142.144 131.146 143.393 136.786C143.916 128.119 143.827 118.05 143.201 115.98Z" fill="black"/>
<path d="M164.86 190.026C164.86 190.026 156.858 188.269 156.256 187.087H151.814L151.844 191.47H154.588L155.008 191.066L155.703 191.47C157.925 191.47 163.828 191.388 165.225 190.923C165.253 190.757 165.233 190.587 165.169 190.429C165.105 190.272 164.999 190.133 164.86 190.026Z" fill="#263238"/>
<path d="M126.883 141.85C129.099 122.599 129.03 109.738 131.73 100.252L149.164 100.009C149.164 100.009 141.903 130.543 138.532 143.249C135.16 155.954 129.39 187.363 129.39 187.363H124.01C124.01 187.363 122.317 156.736 126.883 141.85Z" fill="#263238"/>
<path d="M130.348 104.001C129.963 106.301 128.591 119.908 127.169 124.862C138.794 129.669 156.563 127.779 157.111 124.66C156.948 118.882 156.617 104.001 156.617 104.001H130.348Z" fill="#E0E0E0"/>
<path opacity="0.1" d="M130.995 106.527C131.806 107.753 132.787 108.874 133.912 109.862C133.912 109.862 131.404 109.443 130.995 106.527Z" fill="black"/>
<path opacity="0.1" d="M154.361 109.733C155.027 108.807 155.568 107.807 155.97 106.757C155.97 106.757 156.083 109.107 154.361 109.733Z" fill="black"/>
<path opacity="0.1" d="M131.103 108.261C131.371 109.182 131.768 110.067 132.283 110.892C131.813 110.626 131.446 110.228 131.234 109.755C131.022 109.283 130.976 108.76 131.103 108.261Z" fill="black"/>
<path d="M134.405 190.026C134.405 190.026 129.415 188.269 128.842 187.087H124.4L124.311 191.47H127.949L128.378 191.066L129.064 191.47C131.285 191.47 133.334 191.388 134.746 190.923C134.779 190.759 134.765 190.589 134.706 190.432C134.646 190.274 134.542 190.134 134.405 190.026Z" fill="#263238"/>
<path d="M131.088 61.847C137.248 61.134 146.044 61.203 151.942 62.1506C153.416 62.3996 154.769 63.0742 155.809 64.0788C156.848 65.0834 157.523 66.3673 157.737 67.7488C158.976 76.0518 157.91 90.5602 157.12 105.165C143.645 109.462 129.43 105.105 129.43 105.105C128.936 102.161 130.042 92.506 130.782 87.354C129.672 82.0318 127.327 75.9368 125.757 68.8666C125.567 68.0757 125.557 67.2563 125.727 66.4615C125.898 65.6666 126.246 64.914 126.748 64.2524C127.251 63.5907 127.897 63.0347 128.644 62.6204C129.392 62.206 130.224 61.9426 131.088 61.847Z" fill="#263238"/>
<path opacity="0.1" d="M131.088 61.847C137.248 61.134 146.044 61.203 151.942 62.1506C153.416 62.3996 154.769 63.0742 155.809 64.0788C156.848 65.0834 157.523 66.3673 157.737 67.7488C158.976 76.0518 157.91 90.5602 157.12 105.165C143.645 109.462 129.43 105.105 129.43 105.105C128.936 102.161 130.042 92.506 130.782 87.354C129.672 82.0318 127.327 75.9368 125.757 68.8666C125.567 68.0757 125.557 67.2563 125.727 66.4615C125.898 65.6666 126.246 64.914 126.748 64.2524C127.251 63.5907 127.897 63.0347 128.644 62.6204C129.392 62.206 130.224 61.9426 131.088 61.847Z" fill="white"/>
<path d="M137.184 50.8852L144.193 56.2442C143.285 58.4936 142.999 60.8442 146.957 61.732C147.944 62.951 146.464 65.09 144.707 65.9226C140.55 65.0394 138.157 63.9998 136.542 61.9344C137.051 60.3152 137.86 54.211 137.184 50.8852Z" fill="#FF8B7B"/>
<path opacity="0.2" d="M140.106 53.1208L144.193 56.2396C143.971 56.7597 143.806 57.299 143.699 57.8496C142.115 57.9554 139.914 56.4696 139.815 55.1172C139.779 54.4407 139.878 53.7638 140.106 53.1208Z" fill="black"/>
<path d="M136.177 47.2328C136.819 51.3314 136.967 53.7602 139.39 55.683C143.038 58.5764 148.329 56.2212 149.02 52.003C149.637 48.2172 148.487 42.1498 144.01 40.8802C143.017 40.5986 141.964 40.5569 140.948 40.7589C139.933 40.961 138.99 41.4002 138.206 42.0353C137.423 42.6704 136.826 43.4805 136.471 44.3897C136.116 45.2989 136.015 46.2772 136.177 47.2328Z" fill="#FF8B7B"/>
<path d="M136.138 49.1234C136.59 49.5798 137.173 49.9047 137.819 50.0589C138.464 50.2132 139.144 50.1902 139.776 49.9928C138.719 48.9946 139.746 45.3422 138.69 43.8564C140.733 44.2336 148.69 45.31 149.45 42.7386C150.274 39.9786 146.982 37.7752 145.136 37.5682C145.679 38.7182 145.63 39.5508 143.606 39.1782C141.582 38.8056 133.24 37.0116 134.163 40.6548C131.478 40.6548 131.296 44.298 133.26 46.0414C134.336 46.9686 135.301 48.002 136.138 49.1234Z" fill="#263238"/>
<path d="M134.657 40.48C133.048 40.1074 133.551 38.7274 133.912 38.5848C132.406 38.9252 131.858 40.3052 133.675 40.94C135.491 41.5748 134.657 40.48 134.657 40.48Z" fill="#263238"/>
<path d="M134.938 49.749C135.088 50.1981 135.332 50.6151 135.655 50.9759C135.979 51.3367 136.376 51.6342 136.824 51.8512C138.033 52.4262 138.912 51.4786 138.798 50.2918C138.704 49.22 137.969 47.633 136.646 47.5318C136.355 47.5182 136.065 47.5729 135.803 47.6908C135.54 47.8087 135.314 47.9861 135.144 48.2066C134.974 48.4272 134.866 48.684 134.83 48.9534C134.794 49.2228 134.831 49.4964 134.938 49.749Z" fill="#FF8B7B"/>
<path d="M142.352 47.38C142.382 47.7158 142.599 47.9734 142.846 47.955C143.093 47.9366 143.251 47.6422 143.221 47.311C143.191 46.9798 142.974 46.7176 142.727 46.736C142.481 46.7544 142.323 47.0442 142.352 47.38Z" fill="#263238"/>
<path d="M146.656 47.2834C146.686 47.6192 146.903 47.8768 147.15 47.8538C147.396 47.8308 147.549 47.5456 147.52 47.2098C147.49 46.874 147.273 46.621 147.026 46.6394C146.779 46.6578 146.626 46.9476 146.656 47.2834Z" fill="#263238"/>
<path d="M145.782 47.7342C146.302 48.723 146.966 49.6395 147.757 50.4574C147.169 51.0646 146.064 50.9174 146.064 50.9174L145.782 47.7342Z" fill="#FF5652"/>
<path d="M141.686 46.3128C141.652 46.3217 141.616 46.3217 141.582 46.3128C141.556 46.3037 141.532 46.2897 141.511 46.2717C141.491 46.2536 141.475 46.2318 141.464 46.2077C141.452 46.1836 141.447 46.1577 141.447 46.1315C141.447 46.1053 141.453 46.0793 141.464 46.0552C141.582 45.7599 141.774 45.495 142.024 45.2822C142.273 45.0695 142.574 44.9151 142.9 44.8316C142.956 44.8213 143.013 44.8319 143.061 44.8612C143.108 44.8906 143.141 44.9362 143.152 44.988C143.163 45.0399 143.151 45.0937 143.12 45.1377C143.089 45.1817 143.04 45.2123 142.984 45.2226C142.726 45.2908 142.489 45.4151 142.292 45.5855C142.095 45.7558 141.945 45.9673 141.854 46.2024C141.838 46.2326 141.814 46.2585 141.785 46.2778C141.756 46.2971 141.721 46.3092 141.686 46.3128Z" fill="#263238"/>
<path d="M149.154 45.7792C149.118 45.7794 149.083 45.771 149.052 45.7549C149.021 45.7388 148.995 45.7155 148.976 45.6872C148.845 45.4722 148.66 45.2895 148.438 45.1543C148.215 45.0191 147.962 44.9352 147.698 44.9098C147.67 44.9092 147.642 44.9035 147.617 44.893C147.591 44.8825 147.568 44.8674 147.549 44.8486C147.53 44.8298 147.515 44.8077 147.505 44.7835C147.494 44.7592 147.49 44.7334 147.49 44.7074C147.493 44.6545 147.518 44.6047 147.559 44.5686C147.601 44.5325 147.656 44.513 147.712 44.5142C148.047 44.5426 148.369 44.6451 148.653 44.8132C148.936 44.9812 149.172 45.2099 149.341 45.4802C149.369 45.5251 149.378 45.5783 149.365 45.6288C149.352 45.6793 149.319 45.7233 149.272 45.7516C149.237 45.7736 149.195 45.7833 149.154 45.7792Z" fill="#263238"/>
<path d="M136.542 61.9344C136.542 61.9344 143.734 72.1188 146.469 79.304C149.164 70.8722 149.475 64.124 146.962 61.732C146.153 62.6842 142.895 63.9722 136.542 61.9344Z" fill="#E0E0E0"/>
<path d="M134.089 69.46L133.393 71.3L132.702 73.2136C132.243 74.4878 131.824 75.7666 131.434 77.0224C131.236 77.6526 131.063 78.2782 130.906 78.8946C130.748 79.511 130.595 80.1228 130.486 80.707C130.377 81.2912 130.293 81.857 130.239 82.363C130.211 82.7505 130.211 83.1393 130.239 83.5268L129.983 82.8552C129.775 82.4918 129.563 82.3952 129.553 82.3952C129.543 82.3952 129.622 82.4872 129.775 82.5884C130.235 82.8409 130.723 83.0446 131.231 83.1956C132.544 83.6066 133.885 83.9355 135.244 84.18C136.69 84.4468 138.181 84.64 139.687 84.87C141.192 85.1 142.742 85.261 144.232 85.4588H144.302C144.822 85.5282 145.3 85.7672 145.649 86.1332C145.999 86.4993 146.198 86.9689 146.212 87.4588C146.225 87.9487 146.052 88.4273 145.723 88.8097C145.395 89.1922 144.931 89.4538 144.415 89.5482C142.807 89.8327 141.184 90.0415 139.553 90.1738C137.924 90.3118 136.281 90.3808 134.617 90.3716C132.863 90.3686 131.113 90.2255 129.385 89.9438C128.371 89.7674 127.378 89.4945 126.424 89.1296C125.788 88.8852 125.187 88.5668 124.637 88.182C123.826 87.6235 123.167 86.8957 122.712 86.0568C122.628 85.9006 122.56 85.7373 122.51 85.5692L122.455 85.3806C122.167 84.3792 122.01 83.349 121.986 82.3124C121.962 81.448 121.997 80.583 122.09 79.7226C122.248 78.1509 122.52 76.591 122.904 75.0536C123.255 73.554 123.699 72.105 124.178 70.6744C124.425 69.9614 124.671 69.253 124.948 68.5492C125.224 67.8454 125.501 67.1692 125.841 66.4102C126.287 65.4187 127.129 64.6275 128.189 64.2039C129.249 63.7804 130.444 63.7577 131.522 64.1407C132.599 64.5237 133.475 65.2823 133.963 66.2561C134.452 67.23 134.515 68.3426 134.139 69.3588L134.089 69.46Z" fill="#E0E0E0"/>
<path d="M144.933 86.0522L149.297 86.5582L146.888 91.7608C146.888 91.7608 142.905 90.8408 142.618 88.7984C142.59 88.5726 142.648 88.3447 142.781 88.1544L143.907 86.503C144.015 86.3454 144.169 86.2195 144.35 86.1397C144.532 86.06 144.734 86.0297 144.933 86.0522Z" fill="#FF8B7B"/>
<path d="M152.569 90.4084L151.395 92.1012C151.167 92.4266 150.823 92.6661 150.423 92.7773C150.024 92.8885 149.595 92.8641 149.213 92.7084L146.888 91.7608L149.297 86.5582L152.017 88.1268C152.215 88.2413 152.388 88.3916 152.524 88.5689C152.659 88.7462 152.756 88.9469 152.807 89.1594C152.859 89.3719 152.864 89.5918 152.823 89.8062C152.783 90.0207 152.696 90.2254 152.569 90.4084Z" fill="#FF8B7B"/>
<path d="M136.893 60.352C135.976 60.4877 135.135 60.9094 134.509 61.548C136.463 63.9788 139.249 65.7151 142.406 66.47C142.179 65.7662 142.86 63.71 143.611 62.974C140.851 62.5922 136.893 60.352 136.893 60.352Z" fill="#FAFAFA"/>
<path d="M144.474 60.605C145.41 60.7635 146.3 61.1036 147.086 61.6032C147.086 61.6032 149.85 64.4782 146.592 66.102C146.814 65.3982 145.111 63.5214 143.586 62.974C146.34 62.5922 144.474 60.605 144.474 60.605Z" fill="#FAFAFA"/>
<path d="M143.892 64.6116C141.71 63.5214 139.01 62.3392 139.76 64.2482C140.511 66.1572 139.518 66.8196 140.496 67.4682C141.473 68.1168 143.457 66.3366 144.114 66.0882C144.77 65.8398 143.892 64.6116 143.892 64.6116Z" fill="#FF4040"/>
<path d="M145.437 64.5978C147.1 63.5536 149.183 62.422 148.813 64.285C148.443 66.148 149.361 66.7966 148.635 67.4268C147.91 68.057 146.044 66.2952 145.452 66.0468C144.859 65.7984 145.437 64.5978 145.437 64.5978Z" fill="#FF4040"/>
<path d="M143.596 64.4644C144.089 64.1884 145.294 63.8388 145.891 64.5886C146.488 65.3384 146.296 66.5942 145.471 66.746C145.177 66.8015 144.872 66.7816 144.588 66.6885C144.305 66.5953 144.054 66.4324 143.862 66.217C144.045 65.9421 144.119 65.616 144.07 65.2957C144.021 64.9753 143.854 64.6811 143.596 64.4644Z" fill="#FF4040"/>
<path d="M129.691 187.51L123.704 187.666L123.388 184.506L130.343 184.892L129.691 187.51Z" fill="black"/>
<path d="M157.323 187.501L150.857 187.666L150.141 184.929L157.362 184.276L157.323 187.501Z" fill="black"/>
<path d="M143.23 84.9804C140.207 84.1474 137.089 83.6456 133.941 83.4854C133.269 83.5222 133.013 97.658 133.067 103.44C133.067 104.222 142.722 104.066 145.19 103.712C145.328 102.097 145.358 90.3118 145.999 86.6272C146.048 86.339 145.992 86.0437 145.84 85.7886C145.688 85.5335 145.449 85.3332 145.16 85.2196C144.549 84.9899 143.885 84.9076 143.23 84.9804Z" fill="white"/>
<path d="M193.769 62.353H166.365V63.0798H193.769V62.353Z" fill="#FF4040"/>
<path d="M193.197 63.0798H166.938L167.944 63.5904H192.195L193.197 63.0798Z" fill="#FF4040"/>
<path opacity="0.2" d="M193.197 63.0798H166.938L167.944 63.5904H192.195L193.197 63.0798Z" fill="black"/>
<path d="M181.198 52.0858C181.199 52.2943 181.133 52.4984 181.01 52.6723C180.886 52.8461 180.71 52.9819 180.503 53.0623C180.297 53.1427 180.069 53.1642 179.85 53.1241C179.63 53.084 179.428 52.984 179.27 52.8369C179.111 52.6898 179.003 52.5021 178.959 52.2976C178.915 52.0931 178.937 51.8811 179.023 51.6884C179.108 51.4956 179.253 51.3308 179.439 51.2149C179.625 51.0989 179.844 51.037 180.067 51.037C180.216 51.0364 180.362 51.0631 180.5 51.1155C180.637 51.1679 180.761 51.2451 180.866 51.3426C180.971 51.44 181.055 51.5558 181.112 51.6834C181.168 51.8109 181.198 51.9477 181.198 52.0858Z" fill="#FF4040"/>
<path d="M191.913 58.9812C191.152 56.7848 189.705 54.8499 187.757 53.4244L188.063 53.061C190.09 54.5442 191.596 56.5576 192.387 58.8432L191.913 58.9812Z" fill="#FF4040"/>
<path d="M186.045 52.3664C185.492 52.0817 184.916 51.8372 184.322 51.635L184.49 51.2026C185.108 51.4191 185.707 51.679 186.282 51.98L186.045 52.3664Z" fill="#FF4040"/>
<path d="M180.067 52.0858C177.094 52.0858 174.243 53.1864 172.141 55.1456C170.038 57.1047 168.857 59.7618 168.857 62.5324H191.276C191.276 59.7618 190.095 57.1047 187.993 55.1456C185.891 53.1864 183.04 52.0858 180.067 52.0858Z" fill="#FF4040"/>
<path opacity="0.3" d="M170.403 61.5986H173.3C173.4 61.597 173.497 61.5631 173.573 61.5027C173.65 61.4424 173.701 61.3592 173.72 61.2674C174.302 58.4062 176.133 55.913 179.045 53.7464C179.111 53.6969 179.158 53.6287 179.179 53.5522C179.2 53.4756 179.193 53.3948 179.16 53.322C179.127 53.2493 179.07 53.1885 178.997 53.1488C178.923 53.1092 178.838 53.0929 178.754 53.1024C176.552 53.3733 174.504 54.3049 172.92 55.7563C171.336 57.2077 170.301 59.1002 169.973 61.1478C169.965 61.2044 169.971 61.262 169.989 61.3165C170.007 61.3711 170.037 61.4214 170.078 61.4641C170.119 61.5068 170.169 61.5409 170.225 61.5641C170.281 61.5873 170.341 61.5991 170.403 61.5986Z" fill="white"/>
<path d="M144.405 52.1134C144.636 52.1228 144.867 52.112 145.096 52.0812C145.127 52.0756 145.154 52.059 145.171 52.0348C145.189 52.0107 145.196 51.9811 145.19 51.9524C145.182 51.9224 145.162 51.8962 145.135 51.8784C145.108 51.8607 145.075 51.8527 145.042 51.8558C144.526 51.9273 144 51.889 143.502 51.7441C143.005 51.5991 142.549 51.3511 142.169 51.0186C142.158 51.0076 142.145 50.9988 142.13 50.9929C142.115 50.9869 142.099 50.9838 142.083 50.9838C142.067 50.9838 142.05 50.9869 142.036 50.9929C142.021 50.9988 142.007 51.0076 141.996 51.0186C141.975 51.0406 141.963 51.0693 141.963 51.0991C141.963 51.1289 141.975 51.1576 141.996 51.1796C142.649 51.7555 143.506 52.0878 144.405 52.1134Z" fill="#263238"/>
</svg>
